<mxfile host="app.diagrams.net" agent="Mozilla/5.0 (Windows NT 10.0; Win64; x64) AppleWebKit/537.36 (KHTML, like Gecko) Chrome/140.0.0.0 Safari/537.36 Edg/140.0.0.0" version="28.2.1">
  <diagram name="Pagina-1" id="I7-JVRhfSZdI8sVRfI11">
    <mxGraphModel dx="1295" dy="724" grid="1" gridSize="10" guides="1" tooltips="1" connect="1" arrows="1" fold="1" page="1" pageScale="1" pageWidth="1169" pageHeight="827" math="0" shadow="0">
      <root>
        <mxCell id="0" />
        <mxCell id="1" parent="0" />
        <mxCell id="XZ51GoBKoFRDdWFtA952-8" value="CMS_Header.php" style="swimlane;whiteSpace=wrap;html=1;" parent="1" vertex="1">
          <mxGeometry x="50" y="170" width="190" height="90" as="geometry" />
        </mxCell>
        <mxCell id="XZ51GoBKoFRDdWFtA952-9" value="Include CMS_Connection.php&lt;br&gt;Include CMS_Header.php&lt;div&gt;&lt;br/&gt;&lt;/div&gt;" style="text;html=1;align=center;verticalAlign=middle;resizable=0;points=[];autosize=1;strokeColor=none;fillColor=none;" parent="XZ51GoBKoFRDdWFtA952-8" vertex="1">
          <mxGeometry x="5" y="25" width="180" height="60" as="geometry" />
        </mxCell>
        <mxCell id="XZ51GoBKoFRDdWFtA952-10" value="Connectie maken met MySQL &amp;amp; MongoDB" style="rounded=0;whiteSpace=wrap;html=1;" parent="1" vertex="1">
          <mxGeometry x="295" y="170" width="285" height="40" as="geometry" />
        </mxCell>
        <mxCell id="XZ51GoBKoFRDdWFtA952-13" value="Process URL haal /EN/" style="shape=process;whiteSpace=wrap;html=1;backgroundOutline=1;" parent="1" vertex="1">
          <mxGeometry x="295" y="230" width="285" height="30" as="geometry" />
        </mxCell>
        <mxCell id="XZ51GoBKoFRDdWFtA952-15" value="CMS_Lang&lt;br&gt;&lt;br&gt;id&lt;br&gt;lang_key" style="shape=internalStorage;whiteSpace=wrap;html=1;backgroundOutline=1;" parent="1" vertex="1">
          <mxGeometry x="290" y="280" width="290" height="70" as="geometry" />
        </mxCell>
        <mxCell id="XZ51GoBKoFRDdWFtA952-16" value="Gevonden" style="strokeWidth=2;html=1;shape=mxgraph.flowchart.decision;whiteSpace=wrap;" parent="1" vertex="1">
          <mxGeometry x="385" y="360" width="100" height="100" as="geometry" />
        </mxCell>
        <mxCell id="XZ51GoBKoFRDdWFtA952-18" value="Ja" style="text;html=1;align=center;verticalAlign=middle;whiteSpace=wrap;rounded=0;rotation=40;" parent="1" vertex="1">
          <mxGeometry x="495" y="395" width="60" height="30" as="geometry" />
        </mxCell>
        <mxCell id="XZ51GoBKoFRDdWFtA952-19" value="Nee" style="text;html=1;align=center;verticalAlign=middle;whiteSpace=wrap;rounded=0;rotation=-37;" parent="1" vertex="1">
          <mxGeometry x="320" y="395" width="60" height="30" as="geometry" />
        </mxCell>
        <mxCell id="XZ51GoBKoFRDdWFtA952-20" value="CMS_GrabLang8 = 0" style="rounded=0;whiteSpace=wrap;html=1;" parent="1" vertex="1">
          <mxGeometry x="290" y="450" width="120" height="60" as="geometry" />
        </mxCell>
        <mxCell id="XZ51GoBKoFRDdWFtA952-21" value="CMS_GrabLang8 = id" style="rounded=0;whiteSpace=wrap;html=1;" parent="1" vertex="1">
          <mxGeometry x="460" y="450" width="120" height="60" as="geometry" />
        </mxCell>
        <mxCell id="XZ51GoBKoFRDdWFtA952-23" value="" style="endArrow=classic;html=1;rounded=0;entryX=0.5;entryY=0;entryDx=0;entryDy=0;exitX=0;exitY=0.5;exitDx=0;exitDy=0;exitPerimeter=0;" parent="1" source="XZ51GoBKoFRDdWFtA952-16" target="XZ51GoBKoFRDdWFtA952-20" edge="1">
          <mxGeometry width="50" height="50" relative="1" as="geometry">
            <mxPoint x="420" y="440" as="sourcePoint" />
            <mxPoint x="440" y="520" as="targetPoint" />
          </mxGeometry>
        </mxCell>
        <mxCell id="XZ51GoBKoFRDdWFtA952-27" value="" style="endArrow=classic;html=1;rounded=0;exitX=1;exitY=0.5;exitDx=0;exitDy=0;exitPerimeter=0;entryX=0.558;entryY=0;entryDx=0;entryDy=0;entryPerimeter=0;" parent="1" source="XZ51GoBKoFRDdWFtA952-16" target="XZ51GoBKoFRDdWFtA952-21" edge="1">
          <mxGeometry width="50" height="50" relative="1" as="geometry">
            <mxPoint x="390" y="570" as="sourcePoint" />
            <mxPoint x="440" y="520" as="targetPoint" />
          </mxGeometry>
        </mxCell>
        <mxCell id="f-liyYri6WWPnga1A2oB-33" value="" style="edgeStyle=orthogonalEdgeStyle;rounded=0;orthogonalLoop=1;jettySize=auto;html=1;" parent="1" source="XZ51GoBKoFRDdWFtA952-28" target="XZ51GoBKoFRDdWFtA952-31" edge="1">
          <mxGeometry relative="1" as="geometry" />
        </mxCell>
        <mxCell id="XZ51GoBKoFRDdWFtA952-28" value="Process URL &amp;amp; extentie" style="shape=process;whiteSpace=wrap;html=1;backgroundOutline=1;" parent="1" vertex="1">
          <mxGeometry x="290" y="520" width="290" height="20" as="geometry" />
        </mxCell>
        <mxCell id="XZ51GoBKoFRDdWFtA952-31" value="&lt;div&gt;CMS_Pages&lt;br&gt;&lt;br&gt;id,&lt;/div&gt;&lt;div&gt;&lt;span style=&quot;white-space: normal;&quot;&gt;&lt;span style=&quot;white-space:pre&quot;&gt;&#x9;&lt;/span&gt;page_name&lt;/span&gt;&lt;/div&gt;&lt;div&gt;&lt;span style=&quot;white-space: normal;&quot;&gt;&lt;span style=&quot;white-space:pre&quot;&gt;&#x9;&lt;/span&gt;page_ext&lt;/span&gt;&lt;/div&gt;&lt;div&gt;&lt;span style=&quot;white-space: normal;&quot;&gt;&lt;span style=&quot;white-space:pre&quot;&gt;&#x9;&lt;/span&gt;lang_id&lt;/span&gt;&lt;/div&gt;&lt;div&gt;&lt;span style=&quot;white-space: normal;&quot;&gt;&lt;span style=&quot;white-space:pre&quot;&gt;&#x9;&lt;/span&gt;read_id&lt;/span&gt;&lt;/div&gt;&lt;div&gt;&lt;span style=&quot;white-space: normal;&quot;&gt;&lt;span style=&quot;white-space:pre&quot;&gt;&#x9;&lt;/span&gt;read_write_id&lt;/span&gt;&lt;/div&gt;" style="shape=internalStorage;whiteSpace=wrap;html=1;backgroundOutline=1;dx=40;dy=30;" parent="1" vertex="1">
          <mxGeometry x="290" y="550" width="290" height="130" as="geometry" />
        </mxCell>
        <mxCell id="f-liyYri6WWPnga1A2oB-1" value="Sequence" style="swimlane;whiteSpace=wrap;html=1;startSize=23;" parent="1" vertex="1">
          <mxGeometry x="640" y="170" width="220" height="120" as="geometry" />
        </mxCell>
        <mxCell id="f-liyYri6WWPnga1A2oB-4" value="- Open basic HTML / Head&lt;br&gt;-Include CMS_Head.html&lt;br&gt;- end head open body&lt;br&gt;- Include CMS_Generate_top.php&lt;br&gt;- Include CMS_Generate_Menu.php" style="text;html=1;align=center;verticalAlign=middle;resizable=0;points=[];autosize=1;strokeColor=none;fillColor=none;" parent="f-liyYri6WWPnga1A2oB-1" vertex="1">
          <mxGeometry y="20" width="220" height="90" as="geometry" />
        </mxCell>
        <mxCell id="f-liyYri6WWPnga1A2oB-6" value="CMS_Head.html" style="swimlane;whiteSpace=wrap;html=1;" parent="1" vertex="1">
          <mxGeometry x="880" y="170" width="200" height="60" as="geometry" />
        </mxCell>
        <mxCell id="f-liyYri6WWPnga1A2oB-7" value="CSS / JS reference" style="text;html=1;align=center;verticalAlign=middle;resizable=0;points=[];autosize=1;strokeColor=none;fillColor=none;" parent="f-liyYri6WWPnga1A2oB-6" vertex="1">
          <mxGeometry y="30" width="130" height="30" as="geometry" />
        </mxCell>
        <mxCell id="f-liyYri6WWPnga1A2oB-10" value="" style="endArrow=none;html=1;rounded=0;exitX=0;exitY=0;exitDx=0;exitDy=0;entryX=1;entryY=0;entryDx=0;entryDy=0;" parent="1" source="f-liyYri6WWPnga1A2oB-6" target="f-liyYri6WWPnga1A2oB-1" edge="1">
          <mxGeometry width="50" height="50" relative="1" as="geometry">
            <mxPoint x="390" y="370" as="sourcePoint" />
            <mxPoint x="440" y="320" as="targetPoint" />
          </mxGeometry>
        </mxCell>
        <mxCell id="f-liyYri6WWPnga1A2oB-11" value="CMS_Generate_Top.php" style="swimlane;whiteSpace=wrap;html=1;" parent="1" vertex="1">
          <mxGeometry x="880" y="240" width="200" height="70" as="geometry" />
        </mxCell>
        <mxCell id="f-liyYri6WWPnga1A2oB-12" value="Top Bar / Login / Logo etc" style="text;html=1;align=center;verticalAlign=middle;resizable=0;points=[];autosize=1;strokeColor=none;fillColor=none;" parent="f-liyYri6WWPnga1A2oB-11" vertex="1">
          <mxGeometry y="30" width="160" height="30" as="geometry" />
        </mxCell>
        <mxCell id="f-liyYri6WWPnga1A2oB-13" value="" style="endArrow=none;html=1;rounded=0;exitX=0;exitY=0;exitDx=0;exitDy=0;entryX=1;entryY=0.25;entryDx=0;entryDy=0;" parent="1" source="f-liyYri6WWPnga1A2oB-11" target="f-liyYri6WWPnga1A2oB-1" edge="1">
          <mxGeometry width="50" height="50" relative="1" as="geometry">
            <mxPoint x="390" y="370" as="sourcePoint" />
            <mxPoint x="440" y="320" as="targetPoint" />
          </mxGeometry>
        </mxCell>
        <mxCell id="f-liyYri6WWPnga1A2oB-17" value="CMS_Generate_Menu.php" style="rounded=0;whiteSpace=wrap;html=1;" parent="1" vertex="1">
          <mxGeometry x="880" y="330" width="200" height="40" as="geometry" />
        </mxCell>
        <mxCell id="f-liyYri6WWPnga1A2oB-19" value="" style="endArrow=none;html=1;rounded=0;entryX=0.5;entryY=1;entryDx=0;entryDy=0;exitX=0.25;exitY=0;exitDx=0;exitDy=0;" parent="1" source="XZ51GoBKoFRDdWFtA952-28" target="XZ51GoBKoFRDdWFtA952-20" edge="1">
          <mxGeometry width="50" height="50" relative="1" as="geometry">
            <mxPoint x="480" y="570" as="sourcePoint" />
            <mxPoint x="530" y="520" as="targetPoint" />
          </mxGeometry>
        </mxCell>
        <mxCell id="f-liyYri6WWPnga1A2oB-20" value="" style="endArrow=none;html=1;rounded=0;entryX=0.5;entryY=1;entryDx=0;entryDy=0;exitX=0.75;exitY=0;exitDx=0;exitDy=0;" parent="1" source="XZ51GoBKoFRDdWFtA952-28" target="XZ51GoBKoFRDdWFtA952-21" edge="1">
          <mxGeometry width="50" height="50" relative="1" as="geometry">
            <mxPoint x="480" y="570" as="sourcePoint" />
            <mxPoint x="530" y="520" as="targetPoint" />
          </mxGeometry>
        </mxCell>
        <mxCell id="f-liyYri6WWPnga1A2oB-22" value="" style="endArrow=classic;html=1;rounded=0;entryX=0.479;entryY=0;entryDx=0;entryDy=0;entryPerimeter=0;exitX=0.5;exitY=1;exitDx=0;exitDy=0;" parent="1" source="XZ51GoBKoFRDdWFtA952-13" target="XZ51GoBKoFRDdWFtA952-15" edge="1">
          <mxGeometry width="50" height="50" relative="1" as="geometry">
            <mxPoint x="480" y="570" as="sourcePoint" />
            <mxPoint x="530" y="520" as="targetPoint" />
          </mxGeometry>
        </mxCell>
        <mxCell id="f-liyYri6WWPnga1A2oB-23" value="" style="endArrow=classic;html=1;rounded=0;entryX=0;entryY=0.25;entryDx=0;entryDy=0;exitX=1;exitY=0.5;exitDx=0;exitDy=0;" parent="1" source="XZ51GoBKoFRDdWFtA952-8" target="XZ51GoBKoFRDdWFtA952-13" edge="1">
          <mxGeometry width="50" height="50" relative="1" as="geometry">
            <mxPoint x="480" y="570" as="sourcePoint" />
            <mxPoint x="530" y="520" as="targetPoint" />
            <Array as="points">
              <mxPoint x="270" y="215" />
              <mxPoint x="270" y="238" />
            </Array>
          </mxGeometry>
        </mxCell>
        <mxCell id="f-liyYri6WWPnga1A2oB-24" value="" style="endArrow=classic;html=1;rounded=0;entryX=0;entryY=0.25;entryDx=0;entryDy=0;exitX=1;exitY=0.25;exitDx=0;exitDy=0;" parent="1" source="XZ51GoBKoFRDdWFtA952-8" target="XZ51GoBKoFRDdWFtA952-10" edge="1">
          <mxGeometry width="50" height="50" relative="1" as="geometry">
            <mxPoint x="480" y="570" as="sourcePoint" />
            <mxPoint x="530" y="520" as="targetPoint" />
            <Array as="points">
              <mxPoint x="270" y="193" />
            </Array>
          </mxGeometry>
        </mxCell>
        <mxCell id="f-liyYri6WWPnga1A2oB-26" value="" style="endArrow=classic;html=1;rounded=0;entryX=0.5;entryY=0;entryDx=0;entryDy=0;exitX=0.5;exitY=1;exitDx=0;exitDy=0;" parent="1" source="XZ51GoBKoFRDdWFtA952-31" target="f-liyYri6WWPnga1A2oB-28" edge="1">
          <mxGeometry width="50" height="50" relative="1" as="geometry">
            <mxPoint x="475" y="760" as="sourcePoint" />
            <mxPoint x="475" y="770" as="targetPoint" />
          </mxGeometry>
        </mxCell>
        <mxCell id="f-liyYri6WWPnga1A2oB-27" value="" style="edgeStyle=elbowEdgeStyle;elbow=horizontal;endArrow=classic;html=1;curved=0;rounded=0;endSize=8;startSize=8;entryX=0;entryY=0.5;entryDx=0;entryDy=0;exitX=1;exitY=0.5;exitDx=0;exitDy=0;" parent="1" edge="1">
          <mxGeometry width="50" height="50" relative="1" as="geometry">
            <mxPoint x="550" y="710" as="sourcePoint" />
            <mxPoint x="640" y="230" as="targetPoint" />
          </mxGeometry>
        </mxCell>
        <mxCell id="f-liyYri6WWPnga1A2oB-28" value="Start session&lt;br&gt;Check if the session[&#39;CMS_3&#39;] holds&lt;br&gt;Read and / or write id&#39;s" style="shape=process;whiteSpace=wrap;html=1;backgroundOutline=1;" parent="1" vertex="1">
          <mxGeometry x="290" y="690" width="290" height="40" as="geometry" />
        </mxCell>
        <mxCell id="f-liyYri6WWPnga1A2oB-29" value="CMS_Pages&lt;br&gt;Id&lt;br&gt;Page_name&lt;br&gt;Page_ext&lt;br&gt;Lang_id&lt;br&gt;Rights_Id&lt;br&gt;Sort" style="shape=internalStorage;whiteSpace=wrap;html=1;backgroundOutline=1;" parent="1" vertex="1">
          <mxGeometry x="880" y="380" width="200" height="110" as="geometry" />
        </mxCell>
        <mxCell id="f-liyYri6WWPnga1A2oB-30" value="" style="endArrow=none;html=1;rounded=0;entryX=0.5;entryY=1;entryDx=0;entryDy=0;exitX=0.5;exitY=0;exitDx=0;exitDy=0;" parent="1" source="f-liyYri6WWPnga1A2oB-29" target="f-liyYri6WWPnga1A2oB-17" edge="1">
          <mxGeometry width="50" height="50" relative="1" as="geometry">
            <mxPoint x="480" y="510" as="sourcePoint" />
            <mxPoint x="530" y="460" as="targetPoint" />
          </mxGeometry>
        </mxCell>
        <mxCell id="f-liyYri6WWPnga1A2oB-31" value="" style="endArrow=none;dashed=1;html=1;dashPattern=1 3;strokeWidth=2;rounded=0;entryX=1;entryY=0.5;entryDx=0;entryDy=0;exitX=0;exitY=0.25;exitDx=0;exitDy=0;" parent="1" source="f-liyYri6WWPnga1A2oB-29" target="XZ51GoBKoFRDdWFtA952-15" edge="1">
          <mxGeometry width="50" height="50" relative="1" as="geometry">
            <mxPoint x="480" y="510" as="sourcePoint" />
            <mxPoint x="530" y="460" as="targetPoint" />
            <Array as="points">
              <mxPoint x="870" y="408" />
              <mxPoint x="870" y="300" />
              <mxPoint x="610" y="300" />
            </Array>
          </mxGeometry>
        </mxCell>
        <mxCell id="f-liyYri6WWPnga1A2oB-32" value="" style="endArrow=none;dashed=1;html=1;dashPattern=1 3;strokeWidth=2;rounded=0;exitX=1;exitY=0;exitDx=0;exitDy=0;" parent="1" source="f-liyYri6WWPnga1A2oB-28" edge="1">
          <mxGeometry width="50" height="50" relative="1" as="geometry">
            <mxPoint x="480" y="510" as="sourcePoint" />
            <mxPoint x="620" y="300" as="targetPoint" />
            <Array as="points">
              <mxPoint x="620" y="690" />
            </Array>
          </mxGeometry>
        </mxCell>
        <mxCell id="f-liyYri6WWPnga1A2oB-34" value="" style="endArrow=none;html=1;rounded=0;entryX=1;entryY=1;entryDx=0;entryDy=0;exitX=0;exitY=0;exitDx=0;exitDy=0;" parent="1" source="f-liyYri6WWPnga1A2oB-17" target="f-liyYri6WWPnga1A2oB-1" edge="1">
          <mxGeometry width="50" height="50" relative="1" as="geometry">
            <mxPoint x="480" y="410" as="sourcePoint" />
            <mxPoint x="530" y="360" as="targetPoint" />
          </mxGeometry>
        </mxCell>
        <mxCell id="f-liyYri6WWPnga1A2oB-37" value="Read / Process / Write" style="rounded=0;whiteSpace=wrap;html=1;" parent="1" vertex="1">
          <mxGeometry x="640" y="310" width="220" height="40" as="geometry" />
        </mxCell>
        <mxCell id="irvvLiIJbGDd_lC6di5G-4" value="" style="endArrow=classic;html=1;rounded=0;entryX=1;entryY=0.5;entryDx=0;entryDy=0;exitX=0;exitY=1;exitDx=0;exitDy=0;" edge="1" parent="1" source="f-liyYri6WWPnga1A2oB-37" target="irvvLiIJbGDd_lC6di5G-39">
          <mxGeometry width="50" height="50" relative="1" as="geometry">
            <mxPoint x="580" y="530" as="sourcePoint" />
            <mxPoint x="630" y="480" as="targetPoint" />
            <Array as="points">
              <mxPoint x="610" y="350" />
              <mxPoint x="610" y="750" />
              <mxPoint x="270" y="750" />
              <mxPoint x="270" y="300" />
            </Array>
          </mxGeometry>
        </mxCell>
        <mxCell id="irvvLiIJbGDd_lC6di5G-7" value="CMS_Generate_Sub_items.php" style="swimlane;whiteSpace=wrap;html=1;" vertex="1" parent="1">
          <mxGeometry x="640" y="410" width="200" height="60" as="geometry" />
        </mxCell>
        <mxCell id="irvvLiIJbGDd_lC6di5G-10" value="Foreach / Switch on CMS_Page_content" style="text;html=1;align=center;verticalAlign=middle;whiteSpace=wrap;rounded=0;" vertex="1" parent="irvvLiIJbGDd_lC6di5G-7">
          <mxGeometry y="20" width="200" height="40" as="geometry" />
        </mxCell>
        <mxCell id="irvvLiIJbGDd_lC6di5G-9" value="" style="endArrow=classic;html=1;rounded=0;entryX=0.25;entryY=0;entryDx=0;entryDy=0;exitX=0.536;exitY=0.95;exitDx=0;exitDy=0;exitPerimeter=0;" edge="1" parent="1">
          <mxGeometry width="50" height="50" relative="1" as="geometry">
            <mxPoint x="747.9200000000001" y="348" as="sourcePoint" />
            <mxPoint x="680" y="410" as="targetPoint" />
            <Array as="points">
              <mxPoint x="750" y="380" />
              <mxPoint x="680" y="380" />
            </Array>
          </mxGeometry>
        </mxCell>
        <mxCell id="irvvLiIJbGDd_lC6di5G-11" value="Create form from CMS_forms table" style="shape=process;whiteSpace=wrap;html=1;backgroundOutline=1;" vertex="1" parent="1">
          <mxGeometry x="640" y="480" width="130" height="60" as="geometry" />
        </mxCell>
        <mxCell id="irvvLiIJbGDd_lC6di5G-13" value="Textarea" style="shape=process;whiteSpace=wrap;html=1;backgroundOutline=1;" vertex="1" parent="1">
          <mxGeometry x="640" y="560" width="70" height="20" as="geometry" />
        </mxCell>
        <mxCell id="irvvLiIJbGDd_lC6di5G-14" value="Button" style="shape=process;whiteSpace=wrap;html=1;backgroundOutline=1;" vertex="1" parent="1">
          <mxGeometry x="720" y="560" width="60" height="20" as="geometry" />
        </mxCell>
        <mxCell id="irvvLiIJbGDd_lC6di5G-15" value="Radio / Toggle / Text / Email" style="shape=process;whiteSpace=wrap;html=1;backgroundOutline=1;" vertex="1" parent="1">
          <mxGeometry x="640" y="590" width="190" height="20" as="geometry" />
        </mxCell>
        <mxCell id="irvvLiIJbGDd_lC6di5G-16" value="" style="endArrow=none;html=1;rounded=0;entryX=0.25;entryY=1;entryDx=0;entryDy=0;exitX=0.5;exitY=0;exitDx=0;exitDy=0;" edge="1" parent="1" source="irvvLiIJbGDd_lC6di5G-13" target="irvvLiIJbGDd_lC6di5G-11">
          <mxGeometry width="50" height="50" relative="1" as="geometry">
            <mxPoint x="540" y="470" as="sourcePoint" />
            <mxPoint x="590" y="420" as="targetPoint" />
          </mxGeometry>
        </mxCell>
        <mxCell id="irvvLiIJbGDd_lC6di5G-17" value="" style="endArrow=none;html=1;rounded=0;entryX=0.75;entryY=1;entryDx=0;entryDy=0;exitX=0.25;exitY=0;exitDx=0;exitDy=0;" edge="1" parent="1" source="irvvLiIJbGDd_lC6di5G-14" target="irvvLiIJbGDd_lC6di5G-11">
          <mxGeometry width="50" height="50" relative="1" as="geometry">
            <mxPoint x="540" y="470" as="sourcePoint" />
            <mxPoint x="590" y="420" as="targetPoint" />
          </mxGeometry>
        </mxCell>
        <mxCell id="irvvLiIJbGDd_lC6di5G-18" value="" style="endArrow=none;html=1;rounded=0;entryX=1;entryY=1;entryDx=0;entryDy=0;exitX=0.75;exitY=0;exitDx=0;exitDy=0;" edge="1" parent="1" source="irvvLiIJbGDd_lC6di5G-15" target="irvvLiIJbGDd_lC6di5G-11">
          <mxGeometry width="50" height="50" relative="1" as="geometry">
            <mxPoint x="540" y="470" as="sourcePoint" />
            <mxPoint x="590" y="420" as="targetPoint" />
            <Array as="points">
              <mxPoint x="783" y="550" />
            </Array>
          </mxGeometry>
        </mxCell>
        <mxCell id="irvvLiIJbGDd_lC6di5G-19" value="" style="endArrow=none;html=1;rounded=0;entryX=0.25;entryY=1;entryDx=0;entryDy=0;exitX=0.5;exitY=0;exitDx=0;exitDy=0;" edge="1" parent="1" source="irvvLiIJbGDd_lC6di5G-11" target="irvvLiIJbGDd_lC6di5G-10">
          <mxGeometry width="50" height="50" relative="1" as="geometry">
            <mxPoint x="540" y="470" as="sourcePoint" />
            <mxPoint x="590" y="420" as="targetPoint" />
          </mxGeometry>
        </mxCell>
        <mxCell id="irvvLiIJbGDd_lC6di5G-20" value="Read" style="text;html=1;align=center;verticalAlign=middle;whiteSpace=wrap;rounded=0;" vertex="1" parent="1">
          <mxGeometry x="610" y="350" width="60" height="30" as="geometry" />
        </mxCell>
        <mxCell id="irvvLiIJbGDd_lC6di5G-21" value="Process" style="text;html=1;align=center;verticalAlign=middle;whiteSpace=wrap;rounded=0;" vertex="1" parent="1">
          <mxGeometry x="670" y="350" width="60" height="30" as="geometry" />
        </mxCell>
        <mxCell id="irvvLiIJbGDd_lC6di5G-24" value="" style="endArrow=classic;html=1;rounded=0;exitX=0.75;exitY=1;exitDx=0;exitDy=0;entryX=0;entryY=0;entryDx=0;entryDy=0;" edge="1" parent="1" source="f-liyYri6WWPnga1A2oB-37" target="irvvLiIJbGDd_lC6di5G-26">
          <mxGeometry width="50" height="50" relative="1" as="geometry">
            <mxPoint x="540" y="470" as="sourcePoint" />
            <mxPoint x="918.0952380952381" y="500" as="targetPoint" />
            <Array as="points">
              <mxPoint x="805" y="390" />
              <mxPoint x="860" y="390" />
              <mxPoint x="860" y="500" />
            </Array>
          </mxGeometry>
        </mxCell>
        <mxCell id="irvvLiIJbGDd_lC6di5G-26" value="Store Data In session Redirect to a write page to unlock current page" style="shape=process;whiteSpace=wrap;html=1;backgroundOutline=1;" vertex="1" parent="1">
          <mxGeometry x="880" y="500" width="200" height="60" as="geometry" />
        </mxCell>
        <mxCell id="irvvLiIJbGDd_lC6di5G-27" value="Create string load start page into it. Start buffer and append it to string." style="shape=process;whiteSpace=wrap;html=1;backgroundOutline=1;" vertex="1" parent="1">
          <mxGeometry x="880" y="570" width="200" height="60" as="geometry" />
        </mxCell>
        <mxCell id="irvvLiIJbGDd_lC6di5G-28" value="" style="endArrow=classic;startArrow=classic;html=1;rounded=0;entryX=0;entryY=0.25;entryDx=0;entryDy=0;exitX=1;exitY=1;exitDx=0;exitDy=0;" edge="1" parent="1" source="irvvLiIJbGDd_lC6di5G-10" target="irvvLiIJbGDd_lC6di5G-27">
          <mxGeometry width="50" height="50" relative="1" as="geometry">
            <mxPoint x="540" y="470" as="sourcePoint" />
            <mxPoint x="590" y="420" as="targetPoint" />
            <Array as="points">
              <mxPoint x="840" y="490" />
              <mxPoint x="850" y="510" />
              <mxPoint x="850" y="585" />
            </Array>
          </mxGeometry>
        </mxCell>
        <mxCell id="irvvLiIJbGDd_lC6di5G-29" value="" style="endArrow=classic;html=1;rounded=0;entryX=0.5;entryY=0;entryDx=0;entryDy=0;exitX=0.5;exitY=1;exitDx=0;exitDy=0;" edge="1" parent="1" source="irvvLiIJbGDd_lC6di5G-26" target="irvvLiIJbGDd_lC6di5G-27">
          <mxGeometry width="50" height="50" relative="1" as="geometry">
            <mxPoint x="540" y="470" as="sourcePoint" />
            <mxPoint x="590" y="420" as="targetPoint" />
          </mxGeometry>
        </mxCell>
        <mxCell id="irvvLiIJbGDd_lC6di5G-49" value="" style="edgeStyle=orthogonalEdgeStyle;rounded=0;orthogonalLoop=1;jettySize=auto;html=1;" edge="1" parent="1" source="irvvLiIJbGDd_lC6di5G-30" target="irvvLiIJbGDd_lC6di5G-48">
          <mxGeometry relative="1" as="geometry" />
        </mxCell>
        <mxCell id="irvvLiIJbGDd_lC6di5G-30" value="Append the string with end page. Store string to file. Change database value to read. Redirect to start of file." style="shape=process;whiteSpace=wrap;html=1;backgroundOutline=1;" vertex="1" parent="1">
          <mxGeometry x="880" y="640" width="200" height="90" as="geometry" />
        </mxCell>
        <mxCell id="irvvLiIJbGDd_lC6di5G-31" value="" style="endArrow=classic;html=1;rounded=0;entryX=0.5;entryY=0;entryDx=0;entryDy=0;exitX=0.5;exitY=1;exitDx=0;exitDy=0;" edge="1" parent="1" source="irvvLiIJbGDd_lC6di5G-27" target="irvvLiIJbGDd_lC6di5G-30">
          <mxGeometry width="50" height="50" relative="1" as="geometry">
            <mxPoint x="540" y="470" as="sourcePoint" />
            <mxPoint x="590" y="420" as="targetPoint" />
          </mxGeometry>
        </mxCell>
        <mxCell id="irvvLiIJbGDd_lC6di5G-32" value="" style="endArrow=classic;html=1;rounded=0;exitX=1;exitY=0.25;exitDx=0;exitDy=0;entryX=1;entryY=1;entryDx=0;entryDy=0;" edge="1" parent="1" source="irvvLiIJbGDd_lC6di5G-30" target="irvvLiIJbGDd_lC6di5G-42">
          <mxGeometry width="50" height="50" relative="1" as="geometry">
            <mxPoint x="570" y="470" as="sourcePoint" />
            <mxPoint x="420" y="80" as="targetPoint" />
            <Array as="points">
              <mxPoint x="1100" y="663" />
              <mxPoint x="1100" y="120" />
              <mxPoint x="840" y="120" />
            </Array>
          </mxGeometry>
        </mxCell>
        <mxCell id="irvvLiIJbGDd_lC6di5G-33" value="Raw text or code" style="shape=process;whiteSpace=wrap;html=1;backgroundOutline=1;" vertex="1" parent="1">
          <mxGeometry x="640" y="620" width="220" height="60" as="geometry" />
        </mxCell>
        <mxCell id="irvvLiIJbGDd_lC6di5G-34" value="" style="endArrow=none;html=1;rounded=0;entryX=0.75;entryY=1;entryDx=0;entryDy=0;exitX=1;exitY=0;exitDx=0;exitDy=0;" edge="1" parent="1" source="irvvLiIJbGDd_lC6di5G-33" target="irvvLiIJbGDd_lC6di5G-10">
          <mxGeometry width="50" height="50" relative="1" as="geometry">
            <mxPoint x="620" y="580" as="sourcePoint" />
            <mxPoint x="670" y="530" as="targetPoint" />
          </mxGeometry>
        </mxCell>
        <mxCell id="irvvLiIJbGDd_lC6di5G-38" value="" style="endArrow=none;dashed=1;html=1;dashPattern=1 3;strokeWidth=2;rounded=0;exitX=0.75;exitY=1;exitDx=0;exitDy=0;entryX=0;entryY=0;entryDx=0;entryDy=0;" edge="1" parent="1" source="XZ51GoBKoFRDdWFtA952-15" target="irvvLiIJbGDd_lC6di5G-11">
          <mxGeometry width="50" height="50" relative="1" as="geometry">
            <mxPoint x="610" y="480" as="sourcePoint" />
            <mxPoint x="660" y="430" as="targetPoint" />
          </mxGeometry>
        </mxCell>
        <mxCell id="irvvLiIJbGDd_lC6di5G-39" value="Raw Code" style="shape=process;whiteSpace=wrap;html=1;backgroundOutline=1;" vertex="1" parent="1">
          <mxGeometry x="50" y="270" width="190" height="60" as="geometry" />
        </mxCell>
        <mxCell id="irvvLiIJbGDd_lC6di5G-40" value="" style="endArrow=none;html=1;rounded=0;exitX=0;exitY=0.75;exitDx=0;exitDy=0;" edge="1" parent="1" source="irvvLiIJbGDd_lC6di5G-10">
          <mxGeometry width="50" height="50" relative="1" as="geometry">
            <mxPoint x="510" y="500" as="sourcePoint" />
            <mxPoint x="610" y="750" as="targetPoint" />
            <Array as="points">
              <mxPoint x="630" y="460" />
              <mxPoint x="630" y="750" />
            </Array>
          </mxGeometry>
        </mxCell>
        <mxCell id="irvvLiIJbGDd_lC6di5G-41" value="The Page" style="swimlane;whiteSpace=wrap;html=1;" vertex="1" parent="1">
          <mxGeometry x="50" y="20" width="190" height="100" as="geometry" />
        </mxCell>
        <mxCell id="irvvLiIJbGDd_lC6di5G-42" value="Include CMS_Header.php&lt;br&gt;Raw Code&lt;br&gt;Include CMS_Footer.php" style="text;html=1;align=center;verticalAlign=middle;whiteSpace=wrap;rounded=0;" vertex="1" parent="irvvLiIJbGDd_lC6di5G-41">
          <mxGeometry y="30" width="190" height="70" as="geometry" />
        </mxCell>
        <mxCell id="irvvLiIJbGDd_lC6di5G-43" value="" style="endArrow=classic;html=1;rounded=0;exitX=0.5;exitY=1;exitDx=0;exitDy=0;entryX=0.5;entryY=0;entryDx=0;entryDy=0;" edge="1" parent="1" source="irvvLiIJbGDd_lC6di5G-42" target="XZ51GoBKoFRDdWFtA952-8">
          <mxGeometry width="50" height="50" relative="1" as="geometry">
            <mxPoint x="290" y="90" as="sourcePoint" />
            <mxPoint x="610" y="310" as="targetPoint" />
          </mxGeometry>
        </mxCell>
        <mxCell id="irvvLiIJbGDd_lC6di5G-45" value="Include CMS_Footer.php" style="shape=process;whiteSpace=wrap;html=1;backgroundOutline=1;" vertex="1" parent="1">
          <mxGeometry x="50" y="354" width="190" height="60" as="geometry" />
        </mxCell>
        <mxCell id="irvvLiIJbGDd_lC6di5G-46" value="" style="endArrow=classic;html=1;rounded=0;entryX=0.5;entryY=0;entryDx=0;entryDy=0;exitX=0.5;exitY=1;exitDx=0;exitDy=0;" edge="1" parent="1" source="irvvLiIJbGDd_lC6di5G-39" target="irvvLiIJbGDd_lC6di5G-45">
          <mxGeometry width="50" height="50" relative="1" as="geometry">
            <mxPoint x="560" y="480" as="sourcePoint" />
            <mxPoint x="610" y="430" as="targetPoint" />
          </mxGeometry>
        </mxCell>
        <mxCell id="irvvLiIJbGDd_lC6di5G-47" value="CMS Page Generatio" style="text;html=1;align=center;verticalAlign=middle;whiteSpace=wrap;rounded=0;fontSize=26;fontColor=light-dark(#000000,#FF3333);" vertex="1" parent="1">
          <mxGeometry x="410" y="30" width="395" height="50" as="geometry" />
        </mxCell>
        <mxCell id="irvvLiIJbGDd_lC6di5G-51" value="" style="edgeStyle=orthogonalEdgeStyle;rounded=0;orthogonalLoop=1;jettySize=auto;html=1;" edge="1" parent="1" source="irvvLiIJbGDd_lC6di5G-48" target="irvvLiIJbGDd_lC6di5G-50">
          <mxGeometry relative="1" as="geometry" />
        </mxCell>
        <mxCell id="irvvLiIJbGDd_lC6di5G-48" value="" style="shape=trapezoid;perimeter=trapezoidPerimeter;whiteSpace=wrap;html=1;fixedSize=1;" vertex="1" parent="1">
          <mxGeometry x="920" y="825" width="120" height="60" as="geometry" />
        </mxCell>
        <mxCell id="irvvLiIJbGDd_lC6di5G-50" value="" style="shape=waypoint;sketch=0;size=6;pointerEvents=1;points=[];fillColor=default;resizable=0;rotatable=0;perimeter=centerPerimeter;snapToPoint=1;" vertex="1" parent="1">
          <mxGeometry x="770" y="845" width="20" height="20" as="geometry" />
        </mxCell>
      </root>
    </mxGraphModel>
  </diagram>
</mxfile>
